<svg data-v-0dd9719b="" version="1.0" xmlns="http://www.w3.org/2000/svg" xmlns:xlink="http://www.w3.org/1999/xlink" width="100%" height="100%" viewBox="0 0 340.000000 250.000000" preserveAspectRatio="xMidYMid meet" color-interpolation-filters="sRGB" style="margin: auto;"> <rect data-v-0dd9719b="" x="0" y="0" width="100%" height="100%" fill="#ffffff" fill-opacity="1" class="background"></rect> <rect data-v-0dd9719b="" x="0" y="0" width="100%" height="100%" fill="url(#watermark)" fill-opacity="1" class="watermarklayer"></rect> <g data-v-0dd9719b="" fill="#020f40" class="basesvg" transform="translate(55.549995481967926,114.93499946594238)"><g data-gra="path-name" fill-rule="" class="tp-name"><g transform="scale(1)"><g><path d="M9.79-19.86L16.91-19.86 16.91-16.31 11.4-16.31Q9.26-16.31 8.28-16.02 7.29-15.72 6.64-14.86L6.64-14.86Q6.19-14.26 6.03-13.66 5.86-13.07 5.75-11.64L5.75-11.64 16.91-11.64 16.91-8.1 5.75-8.1Q5.98-5.54 7.26-4.54 8.54-3.54 11.61-3.54L11.61-3.54 16.91-3.54 16.91 0 11.4 0Q9.17 0 7.47-0.27L7.47-0.27Q4.79-0.71 3.22-2.62L3.22-2.62Q0.95-5.36 0.95-10.03L0.95-10.03Q0.95-15.21 4.14-18.1L4.14-18.1Q5.24-19.08 6.47-19.47 7.71-19.86 9.79-19.86L9.79-19.86ZM20.01-19.86L24.2-19.86 24.2-7.95Q24.2-6.52 24.44-5.73 24.68-4.94 25.24-4.38L25.24-4.38Q26.49-3.16 28.73-3.16L28.73-3.16Q30.16-3.16 31.21-3.65 32.27-4.14 32.69-4.97L32.69-4.97Q33.1-5.81 33.1-7.95L33.1-7.95 33.1-19.86 37.33-19.86 37.33-8.16Q37.33-5.83 36.84-4.33 36.35-2.83 35.34-1.91L35.34-1.91Q32.98 0.15 28.67 0.15L28.67 0.15Q24.05 0.15 21.94-1.88L21.94-1.88Q20.84-2.92 20.42-4.21 20.01-5.51 20.01-7.86L20.01-7.86 20.01-19.86ZM48.79-7.53L45.4-7.53 45.4 0 41.17 0 41.17-19.86 50.88-19.86Q55.04-19.86 56.68-18.78L56.68-18.78Q57.81-18.07 58.42-16.89 59.03-15.72 59.03-14.32L59.03-14.32Q59.03-11.49 57.6-9.94L57.6-9.94Q56.71-9.02 55.25-8.54L55.25-8.54Q56.41-8.13 57.01-7.67 57.6-7.2 58.08-6.31L58.08-6.31Q58.44-5.6 58.6-4.94 58.77-4.29 58.85-3.01L58.85-3.01Q59.03-0.86 59.33 0L59.33 0 54.6 0Q54.39-0.68 54.15-2.83L54.15-2.83Q54-4.55 53.54-5.48 53.08-6.4 52.16-6.94L52.16-6.94Q51-7.56 48.79-7.53L48.79-7.53ZM45.4-16.31L45.4-11.07 51.32-11.07Q52.81-11.07 53.44-11.52L53.44-11.52Q54.39-12.18 54.39-13.81L54.39-13.81Q54.39-15.63 52.96-16.14L52.96-16.14Q52.45-16.31 51.32-16.31L51.32-16.31 45.4-16.31ZM71.15-19.98L71.15-19.98Q74.13-19.98 76.39-18.96L76.39-18.96Q79.04-17.74 80.11-14.88L80.11-14.88Q80.94-12.65 80.94-9.65L80.94-9.65Q80.94-6.61 79.93-4.38L79.93-4.38Q78.65-1.73 76-0.65L76-0.65Q74.04 0.12 71.48 0.12L71.48 0.12Q68.11 0.12 65.64-1.13L65.64-1.13Q63.56-2.17 62.46-4.41 61.36-6.64 61.36-9.82L61.36-9.82Q61.36-15.51 64.18-17.92L64.18-17.92Q66.56-19.95 71.15-19.98ZM71.18-16.64L71.18-16.64Q68.26-16.64 67.01-14.74L67.01-14.74Q66-13.25 66-9.94L66-9.94Q66-6.46 67.25-4.82L67.25-4.82Q68.5-3.22 71.21-3.22L71.21-3.22Q73.83-3.22 75.06-4.85 76.3-6.49 76.3-9.91L76.3-9.91Q76.3-13.04 75.29-14.68L75.29-14.68Q74.13-16.61 71.18-16.64ZM83.83-19.86L89.99-19.86 94.94-4.35 100.14-19.86 106.31-19.86 106.31 0 102.29 0 102.29-14.88 97.11 0 92.76 0 87.85-14.88 87.85 0 83.83 0 83.83-19.86ZM113.39 0L108.45 0 116.67-19.86 121.52-19.86 129.74 0 124.79 0 122.86-4.58 115.33-4.58 113.39 0ZM121.94-8.13L119.11-15.06 116.28-8.13 121.94-8.13ZM139.5-7.53L136.11-7.53 136.11 0 131.88 0 131.88-19.86 141.58-19.86Q145.75-19.86 147.39-18.78L147.39-18.78Q148.52-18.07 149.13-16.89 149.74-15.72 149.74-14.32L149.74-14.32Q149.74-11.49 148.31-9.94L148.31-9.94Q147.42-9.02 145.96-8.54L145.96-8.54Q147.12-8.13 147.72-7.67 148.31-7.2 148.79-6.31L148.79-6.31Q149.15-5.6 149.31-4.94 149.47-4.29 149.56-3.01L149.56-3.01Q149.74-0.86 150.04 0L150.04 0 145.31 0Q145.1-0.68 144.86-2.83L144.86-2.83Q144.71-4.55 144.25-5.48 143.79-6.4 142.86-6.94L142.86-6.94Q141.7-7.56 139.5-7.53L139.5-7.53ZM136.11-16.31L136.11-11.07 142.03-11.07Q143.52-11.07 144.14-11.52L144.14-11.52Q145.1-12.18 145.1-13.81L145.1-13.81Q145.1-15.63 143.67-16.14L143.67-16.14Q143.16-16.31 142.03-16.31L142.03-16.31 136.11-16.31ZM153.13-19.86L157.36-19.86 157.36 0 153.13 0 153.13-19.86ZM164.72 0L157.51-10.03 165.1-19.86 170.67-19.86 162.36-10.03 170.28 0 164.72 0ZM183.77-6.94L176.98-6.94 176.98 0 172.75 0 172.75-19.86 182.67-19.86Q185.38-19.86 186.54-19.47L186.54-19.47Q188.5-18.81 189.63-16.76L189.63-16.76Q190.47-15.21 190.47-13.4L190.47-13.4Q190.47-11.88 189.92-10.52 189.36-9.17 188.38-8.31L188.38-8.31Q187.49-7.53 186.49-7.23 185.49-6.94 183.77-6.94L183.77-6.94ZM176.98-16.31L176.98-10.48 182.73-10.48Q184.27-10.48 184.9-10.96L184.9-10.96Q185.82-11.7 185.82-13.55L185.82-13.55Q185.82-15.54 184.42-16.11L184.42-16.11Q183.92-16.31 182.82-16.31L182.82-16.31 176.98-16.31ZM196.15 0L191.21 0 199.43-19.86 204.28-19.86 212.5 0 207.55 0 205.62-4.58 198.09-4.58 196.15 0ZM204.7-8.13L201.87-15.06 199.04-8.13 204.7-8.13ZM219.04 0L219.04-16.31 212.73-16.31 212.73-19.86 229.85-19.86 229.85-16.31 223.27-16.31 223.27 0 219.04 0Z" transform="translate(-0.9500000476837158, 19.979999542236328)"></path></g> <!----> <!----> <!----> <!----> <!----> <!----> <!----></g></g> <!----></g><defs v-gra="od"></defs></svg>